<svg width="152" height="74" viewBox="0 0 152 74" fill="none" xmlns="http://www.w3.org/2000/svg">
<path d="M0.955383 6.01155C0.955383 2.96744 3.46271 0.49971 6.55565 0.49971H58.8248C61.9177 0.49971 64.4251 2.96745 64.4251 6.01155V64.8045C64.4251 67.8486 61.9177 70.3164 58.8248 70.3164H6.55565C3.46271 70.3164 0.955383 67.8486 0.955383 64.8045V6.01155Z" fill="#E7E7FD"/>
<path d="M75.9626 5.75671C75.9626 2.95725 78.232 0.687836 81.0315 0.687836H146.466C149.266 0.687836 151.535 2.95725 151.535 5.75671C151.535 8.55617 149.266 10.8256 146.466 10.8256H81.0315C78.232 10.8256 75.9626 8.55617 75.9626 5.75671Z" fill="#C3C4FA" fill-opacity="0.4"/>
<path d="M75.9626 25.1105C75.9626 22.311 78.232 20.0416 81.0315 20.0416H146.466C149.266 20.0416 151.535 22.311 151.535 25.1105C151.535 27.91 149.266 30.1794 146.466 30.1794H81.0315C78.232 30.1794 75.9626 27.91 75.9626 25.1105Z" fill="#C3C4FA" fill-opacity="0.4"/>
<path d="M76.2145 56.7159C76.2145 47.2014 83.7245 39.4884 92.9886 39.4884H93.8953C103.159 39.4884 110.669 47.2014 110.669 56.7159C110.669 66.2304 103.159 73.9434 93.8953 73.9434H92.9886C83.7245 73.9434 76.2145 66.2304 76.2145 56.7159Z" fill="#E7E7FD"/>
<path d="M28.3674 34.1325C26.6792 31.9015 23.2807 32.0485 21.7915 34.417L9.34371 54.2142C7.66882 56.878 9.58337 60.3434 12.73 60.3434H52.1136C55.3683 60.3434 57.2605 56.6635 55.367 54.0163L48.2034 44.0009C46.7229 41.9311 43.7115 41.7517 41.9958 43.6311L41.7163 43.9373C40.0302 45.7843 37.0815 45.6485 35.5724 43.6541L28.3674 34.1325Z" fill="#C8B7FF"/>
<path d="M52.6395 20.9011C52.6395 24.156 50.0008 26.7947 46.7458 26.7947C43.4909 26.7947 40.8522 24.156 40.8522 20.9011C40.8522 17.6461 43.4909 15.0075 46.7458 15.0075C50.0008 15.0075 52.6395 17.6461 52.6395 20.9011Z" fill="#190041"/>
<path d="M117.017 46.5561C117.017 42.6527 120.182 39.4884 124.085 39.4884H144.405C148.308 39.4884 151.472 42.6527 151.472 46.5561V66.8757C151.472 70.7791 148.308 73.9434 144.405 73.9434H124.085C120.182 73.9434 117.017 70.7791 117.017 66.8757V46.5561Z" fill="#E7E7FD"/>
<path fill-rule="evenodd" clip-rule="evenodd" d="M126.083 48.5555H143.31V53.0891H140.726V51.3737H128.667V53.0891H126.083V48.5555Z" fill="#C8B7FF"/>
<path fill-rule="evenodd" clip-rule="evenodd" d="M133.159 65.1711L133.319 50.3162L135.912 50.3441L135.753 65.199L133.159 65.1711Z" fill="#C8B7FF"/>
</svg>
