<svg width="1296" height="406" viewBox="0 0 1296 406" fill="none" xmlns="http://www.w3.org/2000/svg">
<rect width="1296" height="406" rx="10" fill="#FDF4E6"/>
<path d="M1224.69 65H1100.92C1097.6 65 1094.92 67.6863 1094.92 71V194.686C1094.92 197.999 1097.6 200.686 1100.92 200.686H1224.69C1228 200.686 1230.69 197.999 1230.69 194.686V71C1230.69 67.6863 1228 65 1224.69 65Z" fill="#FEDFAF"/>
<path d="M1202.77 232.789H1174.02C1114.92 232.789 1067 184.89 1067 125.815V97.1029H1095.75C1154.85 97.1029 1202.77 145.002 1202.77 204.077V232.789Z" fill="#FDFBF5"/>
<path d="M50.9835 335.537C42.7106 317.02 51.0262 295.287 69.5506 287.011L69.5741 287L99.5411 354.073L99.5176 354.083C80.9697 362.37 59.2564 354.053 50.9835 335.537Z" fill="#FFCE71"/>
<path d="M108.826 267.309C100.277 248.918 78.4186 240.937 60.0199 249.49L59.9966 249.501L90.963 316.118L90.9863 316.107C109.408 307.544 117.375 285.699 108.826 267.309Z" fill="#FEDFAF"/>
<path d="M640.195 200.651C588.609 149.298 535.262 121.896 518.771 138.239C502.28 154.652 529.835 207.765 581.421 259.118C633.007 310.541 686.355 337.943 702.845 321.53C719.336 305.117 691.781 252.003 640.195 200.651ZM638.645 202.13C688.539 251.792 716.658 304.694 701.295 319.98C685.932 335.266 632.796 307.301 582.901 257.568C533.006 207.906 504.888 155.004 520.251 139.718C535.614 124.432 588.75 152.398 638.645 202.13Z" fill="white"/>
<path d="M667.539 173.391C615.953 122.038 562.605 94.6361 546.115 110.979C529.624 127.392 557.179 180.506 608.765 231.858C660.351 283.281 713.698 310.683 730.189 294.27C746.68 277.857 719.125 224.743 667.539 173.391ZM666.059 174.941C715.954 224.603 744.072 277.505 728.709 292.791C713.346 308.077 660.21 280.111 610.315 230.379C560.421 180.717 532.302 127.815 547.665 112.529C563.028 97.2425 616.164 125.208 666.059 174.941Z" fill="white"/>
<path d="M694.953 146.129C643.367 94.7765 590.019 67.3744 573.529 83.7171C557.038 100.13 584.593 153.244 636.179 204.596C687.765 256.02 741.112 283.422 757.603 267.009C774.094 250.595 746.539 197.482 694.953 146.129ZM693.403 147.679C743.297 197.341 771.416 250.243 756.053 265.529C740.69 280.815 687.553 252.85 637.659 203.117C587.764 153.455 559.646 100.553 575.009 85.2668C590.372 69.9807 643.508 97.9464 693.403 147.679Z" fill="white"/>
</svg>
