<svg width="67" height="67" viewBox="0 0 67 67" fill="none" xmlns="http://www.w3.org/2000/svg">
<g filter="url(#filter0_d_34_277)">
<circle cx="33.3618" cy="29" r="20" fill="url(#paint0_linear_34_277)"/>
</g>
<path d="M41.5145 25.1568C41.5055 24.4845 41.378 23.8189 41.138 23.1897C40.9298 22.659 40.6119 22.177 40.2045 21.7745C39.797 21.3721 39.3091 21.058 38.7719 20.8523C38.1431 20.6192 37.4789 20.4931 36.8074 20.4795C35.943 20.4413 35.6689 20.4307 33.4744 20.4307C31.2799 20.4307 30.9986 20.4307 30.1404 20.4795C29.4693 20.4932 28.8054 20.6193 28.1769 20.8523C27.6396 21.0578 27.1516 21.3719 26.7441 21.7743C26.3367 22.1768 26.0188 22.6589 25.8108 23.1897C25.5743 23.8103 25.4469 24.4663 25.4343 25.1293C25.3956 25.9842 25.3839 26.2549 25.3839 28.4227C25.3839 30.5905 25.3839 30.8675 25.4343 31.7162C25.4477 32.3802 25.5744 33.0353 25.8108 33.6576C26.0192 34.1882 26.3373 34.6701 26.7449 35.0724C27.1524 35.4747 27.6405 35.7886 28.1778 35.994C28.8045 36.2366 29.4686 36.3717 30.1413 36.3935C31.0067 36.4317 31.2808 36.4432 33.4753 36.4432C35.6698 36.4432 35.951 36.4432 36.8092 36.3935C37.4807 36.3805 38.1449 36.2547 38.7737 36.0216C39.3108 35.8157 39.7986 35.5015 40.206 35.0991C40.6133 34.6967 40.9314 34.2148 41.1398 33.6842C41.3761 33.0628 41.5028 32.4077 41.5163 31.7428C41.555 30.8888 41.5666 30.6181 41.5666 28.4494C41.5648 26.2816 41.5648 26.0064 41.5145 25.1568ZM33.469 32.5222C31.1739 32.5222 29.3146 30.6855 29.3146 28.4183C29.3146 26.1511 31.1739 24.3144 33.469 24.3144C34.5708 24.3144 35.6275 24.7468 36.4066 25.5164C37.1857 26.286 37.6234 27.3299 37.6234 28.4183C37.6234 29.5067 37.1857 30.5506 36.4066 31.3202C35.6275 32.0898 34.5708 32.5222 33.469 32.5222ZM37.7888 25.1196C37.6615 25.1197 37.5355 25.095 37.4179 25.047C37.3003 24.9989 37.1935 24.9284 37.1035 24.8395C37.0135 24.7507 36.9422 24.6451 36.8935 24.529C36.8449 24.4128 36.8199 24.2883 36.82 24.1626C36.82 24.037 36.8451 23.9126 36.8937 23.7966C36.9424 23.6805 37.0137 23.5751 37.1036 23.4863C37.1935 23.3974 37.3003 23.327 37.4178 23.2789C37.5352 23.2308 37.6612 23.2061 37.7883 23.2061C37.9155 23.2061 38.0414 23.2308 38.1589 23.2789C38.2763 23.327 38.3831 23.3974 38.473 23.4863C38.5629 23.5751 38.6342 23.6805 38.6829 23.7966C38.7316 23.9126 38.7566 24.037 38.7566 24.1626C38.7566 24.6917 38.3235 25.1196 37.7888 25.1196Z" fill="white"/>
<path d="M33.4689 31.0836C34.9593 31.0836 36.1675 29.89 36.1675 28.4178C36.1675 26.9455 34.9593 25.752 33.4689 25.752C31.9785 25.752 30.7703 26.9455 30.7703 28.4178C30.7703 29.89 31.9785 31.0836 33.4689 31.0836Z" fill="white"/>
<defs>
<filter id="filter0_d_34_277" x="0.403772" y="0.361345" width="65.916" height="65.916" filterUnits="userSpaceOnUse" color-interpolation-filters="sRGB">
<feFlood flood-opacity="0" result="BackgroundImageFix"/>
<feColorMatrix in="SourceAlpha" type="matrix" values="0 0 0 0 0 0 0 0 0 0 0 0 0 0 0 0 0 0 127 0" result="hardAlpha"/>
<feOffset dy="4.31933"/>
<feGaussianBlur stdDeviation="6.47899"/>
<feComposite in2="hardAlpha" operator="out"/>
<feColorMatrix type="matrix" values="0 0 0 0 0 0 0 0 0 0 0 0 0 0 0 0 0 0 0.2 0"/>
<feBlend mode="normal" in2="BackgroundImageFix" result="effect1_dropShadow_34_277"/>
<feBlend mode="normal" in="SourceGraphic" in2="effect1_dropShadow_34_277" result="shape"/>
</filter>
<linearGradient id="paint0_linear_34_277" x1="41.7841" y1="10.6715" x2="23.2332" y2="45.6436" gradientUnits="userSpaceOnUse">
<stop stop-color="#8049BC"/>
<stop offset="0.208333" stop-color="#BC309C"/>
<stop offset="0.432292" stop-color="#DF2C73"/>
<stop offset="0.770833" stop-color="#FA822C"/>
<stop offset="1" stop-color="#FED87A"/>
</linearGradient>
</defs>
</svg>
